<?xml version="1.0" standalone="no"?>
<!DOCTYPE svg PUBLIC "-//W3C//DTD SVG 20010904//EN"
 "http://www.w3.org/TR/2001/REC-SVG-20010904/DTD/svg10.dtd">
<svg version="1.0" xmlns="http://www.w3.org/2000/svg"
 width="64.000000pt" height="64.000000pt" viewBox="0 0 64.000000 64.000000"
 preserveAspectRatio="xMidYMid meet">

<g transform="translate(0.000000,64.000000) scale(0.100000,-0.100000)"
fill="#000000" stroke="none">
<path d="M300 621 c0 -4 -17 -20 -38 -35 -27 -19 -51 -26 -83 -26 -25 0 -50
-5 -57 -12 -9 -9 -12 -83 -12 -270 0 -244 1 -258 19 -268 29 -15 374 -13 389
2 17 17 17 519 0 536 -7 7 -32 12 -57 12 -32 0 -56 7 -83 26 -21 15 -38 31
-38 35 0 5 -9 9 -20 9 -11 0 -20 -4 -20 -9z m30 -11 c0 -5 -4 -10 -10 -10 -5
0 -10 5 -10 10 0 6 5 10 10 10 6 0 10 -4 10 -10z m13 -27 c-13 -2 -33 -2 -45
0 -13 2 -3 4 22 4 25 0 35 -2 23 -4z m57 -38 c0 -12 -16 -15 -80 -15 -64 0
-80 3 -80 15 0 12 16 15 80 15 64 0 80 -3 80 -15z m-225 -36 l-45 -41 -3 -217
-2 -216 -3 242 c-2 269 -1 273 63 273 l35 0 -45 -41z m333 29 c9 -9 11 -77 10
-257 l-2 -246 -6 250 -5 250 -45 6 -45 6 41 1 c22 1 45 -3 52 -10z m-181 -28
c38 0 74 5 80 11 6 6 28 9 49 7 l39 -3 0 -240 0 -240 -172 -3 -173 -2 0 205 0
205 23 0 c31 0 47 18 47 52 0 25 2 27 19 18 11 -5 51 -10 88 -10z m-127 -20
c0 -14 -7 -20 -22 -20 -20 0 -21 1 -3 20 10 11 20 20 22 20 1 0 3 -9 3 -20z"/>
<path d="M288 543 c17 -2 47 -2 65 0 17 2 3 4 -33 4 -36 0 -50 -2 -32 -4z"/>
<path d="M276 469 c-52 -41 -22 -129 44 -129 66 0 96 88 44 129 -15 12 -34 21
-44 21 -10 0 -29 -9 -44 -21z m84 -19 c21 -21 26 -45 12 -54 -14 -8 -27 8 -27
34 0 20 -5 25 -25 25 -20 0 -25 -5 -25 -25 0 -26 -13 -42 -27 -33 -12 7 1 45
20 61 23 18 49 15 72 -8z m-24 -11 c10 -17 -13 -36 -27 -22 -12 12 -4 33 11
33 5 0 12 -5 16 -11z m14 -68 c0 -13 -27 -21 -45 -15 -25 10 -17 24 15 24 17
0 30 -4 30 -9z"/>
<path d="M218 303 c-32 -5 -36 -23 -10 -46 17 -16 20 -15 40 6 12 13 22 29 22
35 0 12 -3 12 -52 5z m32 -17 c0 -2 -6 -9 -14 -15 -11 -9 -16 -9 -22 0 -4 7
-3 9 4 5 6 -3 13 -2 17 4 6 10 15 14 15 6z"/>
<path d="M328 293 c23 -2 61 -2 85 0 23 2 4 4 -43 4 -47 0 -66 -2 -42 -4z"/>
<path d="M317 263 c18 -2 50 -2 70 0 21 2 7 4 -32 4 -38 0 -55 -2 -38 -4z"/>
<path d="M218 223 c-32 -5 -36 -23 -10 -46 17 -16 20 -15 40 6 12 13 22 29 22
35 0 12 -3 12 -52 5z m32 -17 c0 -2 -6 -9 -14 -15 -11 -9 -16 -9 -22 0 -4 7
-3 9 4 5 6 -3 13 -2 17 4 6 10 15 14 15 6z"/>
<path d="M328 213 c23 -2 61 -2 85 0 23 2 4 4 -43 4 -47 0 -66 -2 -42 -4z"/>
<path d="M317 183 c18 -2 50 -2 70 0 21 2 7 4 -32 4 -38 0 -55 -2 -38 -4z"/>
<path d="M218 143 c-32 -5 -36 -23 -10 -46 17 -16 20 -15 40 6 12 13 22 29 22
35 0 12 -3 12 -52 5z m32 -17 c0 -2 -6 -9 -14 -15 -11 -9 -16 -9 -22 0 -4 7
-3 9 4 5 6 -3 13 -2 17 4 6 10 15 14 15 6z"/>
<path d="M328 133 c23 -2 61 -2 85 0 23 2 4 4 -43 4 -47 0 -66 -2 -42 -4z"/>
<path d="M317 103 c18 -2 50 -2 70 0 21 2 7 4 -32 4 -38 0 -55 -2 -38 -4z"/>
</g>
</svg>
